<svg width="26" height="26" viewBox="0 0 26 26" fill="none" xmlns="http://www.w3.org/2000/svg">
<circle cx="13" cy="13" r="13" fill="#323232"/>
<path d="M8.07143 20C7.77679 20 7.52455 19.8951 7.31473 19.6853C7.10491 19.4754 7 19.2232 7 18.9286V11.1786C7 10.8839 7.10491 10.6317 7.31473 10.4219C7.52455 10.2121 7.77679 10.1071 8.07143 10.1071H9.32143V8.39286C9.32143 7.45417 9.65242 6.65402 10.3144 5.99241C10.9764 5.3308 11.777 5 12.7162 5C13.6554 5 14.4554 5.3308 15.1161 5.99241C15.7768 6.65402 16.1071 7.45417 16.1071 8.39286V10.1071H17.3571C17.6518 10.1071 17.904 10.2121 18.1138 10.4219C18.3237 10.6317 18.4286 10.8839 18.4286 11.1786V18.9286C18.4286 19.2232 18.3237 19.4754 18.1138 19.6853C17.904 19.8951 17.6518 20 17.3571 20H8.07143ZM8.07143 18.9286H17.3571V11.1786H8.07143V18.9286ZM12.7173 16.4286C13.0962 16.4286 13.4196 16.2974 13.6875 16.0352C13.9554 15.7729 14.0893 15.4576 14.0893 15.0893C14.0893 14.7321 13.9544 14.4077 13.6845 14.1161C13.4146 13.8244 13.0902 13.6786 12.7113 13.6786C12.3323 13.6786 12.0089 13.8244 11.7411 14.1161C11.4732 14.4077 11.3393 14.7351 11.3393 15.0982C11.3393 15.4613 11.4742 15.7738 11.7441 16.0357C12.0139 16.2976 12.3383 16.4286 12.7173 16.4286ZM10.3929 10.1071H15.0357V8.39286C15.0357 7.74801 14.8102 7.1999 14.3593 6.74852C13.9083 6.29713 13.3606 6.07143 12.7164 6.07143C12.0721 6.07143 11.5238 6.29713 11.0714 6.74852C10.619 7.1999 10.3929 7.74801 10.3929 8.39286V10.1071Z" fill="white"/>
</svg>
