<svg width="35" height="35" viewBox="0 0 35 35" fill="none" xmlns="http://www.w3.org/2000/svg">
<path d="M33.9746 31.5137H32.9492V25.3613H33.9746C34.5409 25.3613 35 24.9022 35 24.3359C35 23.7696 34.5409 23.3105 33.9746 23.3105H30.1465V17.1582H31.1719C31.7382 17.1582 32.1973 16.6991 32.1973 16.1328C32.1973 15.5665 31.7382 15.1074 31.1719 15.1074H27.4121V8.09565L32.7663 6.87878C33.8305 6.63693 33.8305 5.12085 32.7663 4.879L17.7273 1.46103C17.5777 1.42705 17.4224 1.42705 17.2728 1.46103L2.23371 4.879C1.7016 4.99992 1.43555 5.43941 1.43555 5.87889V12.0312C1.43555 12.5975 1.89465 13.0566 2.46094 13.0566C3.02723 13.0566 3.48633 12.5975 3.48633 12.0312V7.1635L7.58789 8.09565V15.1074H5.87891C4.18271 15.1074 2.80273 16.4874 2.80273 18.1836V22.2851C2.80273 22.6455 2.86556 22.9914 2.97992 23.313C1.32822 23.3641 0 24.7228 0 26.3867V30.4883C0 32.1845 1.37997 33.5644 3.07617 33.5644H33.9746C34.5409 33.5644 35 33.1053 35 32.539C35 31.9728 34.5409 31.5137 33.9746 31.5137ZM17.5 3.51242L27.9123 5.87889L17.5 8.24535L7.0877 5.87889L17.5 3.51242ZM9.63867 8.56172L17.2728 10.2968C17.4223 10.3307 17.5777 10.3307 17.7273 10.2968L25.3613 8.56172V15.1074H9.63867V8.56172ZM4.85352 18.1836C4.85352 17.6182 5.31351 17.1582 5.87891 17.1582H28.0957V19.209H7.92969C7.3634 19.209 6.9043 19.6681 6.9043 20.2344C6.9043 20.8006 7.3634 21.2597 7.92969 21.2597H28.0957V23.3105H5.87891C5.31351 23.3105 4.85352 22.8505 4.85352 22.2851V18.1836ZM2.05078 30.4883V26.3867C2.05078 25.8213 2.51077 25.3613 3.07617 25.3613H30.8984V27.4121H5.12695C4.56066 27.4121 4.10156 27.8712 4.10156 28.4375C4.10156 29.0038 4.56066 29.4629 5.12695 29.4629H30.8984V31.5137H3.07617C2.51077 31.5137 2.05078 31.0537 2.05078 30.4883Z" fill="white"/>
</svg>
