<svg width="35" height="35" viewBox="0 0 35 35" fill="none" xmlns="http://www.w3.org/2000/svg">
<g clip-path="url(#clip0_906_917)">
<path d="M32.5391 8.27148H28.7793V1.02539C28.7793 0.459023 28.3203 0 27.7539 0H7.24609C6.67973 0 6.2207 0.459023 6.2207 1.02539V8.27148H2.46094C1.14155 8.27148 0.0683594 9.34467 0.0683594 10.6641V28.4375C0.0683594 29.7569 1.14155 30.8301 2.46094 30.8301H14.4238V32.9492H12.373C11.8067 32.9492 11.3477 33.4082 11.3477 33.9746C11.3477 34.541 11.8067 35 12.373 35H22.627C23.1933 35 23.6523 34.541 23.6523 33.9746C23.6523 33.4082 23.1933 32.9492 22.627 32.9492H20.5762V30.8301H32.5391C33.8585 30.8301 34.9316 29.7569 34.9316 28.4375V10.6641C34.9316 9.34467 33.8585 8.27148 32.5391 8.27148ZM32.5391 10.3223C32.7276 10.3223 32.8809 10.4755 32.8809 10.6641V24.6777H28.7793V10.3223H32.5391ZM26.7285 2.05078V24.6777H18.5254V21.5332C18.5254 20.9668 18.0664 20.5078 17.5 20.5078H11.3477C10.7813 20.5078 10.3223 20.9668 10.3223 21.5332V24.6777H8.27148V2.05078H26.7285ZM16.4746 24.6777H12.373V22.5586H16.4746V24.6777ZM2.46094 10.3223H6.2207V24.6777H2.11914V10.6641C2.11914 10.4755 2.27242 10.3223 2.46094 10.3223ZM18.5254 32.9492H16.4746V30.8301H18.5254V32.9492ZM32.5391 28.7793H2.46094C2.27242 28.7793 2.11914 28.626 2.11914 28.4375V26.7285H32.8809V28.4375C32.8809 28.626 32.7276 28.7793 32.5391 28.7793Z" fill="white"/>
<path d="M11.3477 10.3223H23.6523C24.2187 10.3223 24.6777 9.86324 24.6777 9.29688V5.19531C24.6777 4.62894 24.2187 4.16992 23.6523 4.16992H11.3477C10.7813 4.16992 10.3223 4.62894 10.3223 5.19531V9.29688C10.3223 9.86324 10.7813 10.3223 11.3477 10.3223ZM12.373 6.2207H22.627V8.27148H12.373V6.2207Z" fill="white"/>
<path d="M11.3477 14.4238H23.6523C24.2187 14.4238 24.6777 13.9648 24.6777 13.3984C24.6777 12.8321 24.2187 12.373 23.6523 12.373H11.3477C10.7813 12.373 10.3223 12.8321 10.3223 13.3984C10.3223 13.9648 10.7813 14.4238 11.3477 14.4238Z" fill="white"/>
<path d="M11.3477 18.457H23.6523C24.2187 18.457 24.6777 17.998 24.6777 17.4316C24.6777 16.8653 24.2187 16.4062 23.6523 16.4062H11.3477C10.7813 16.4062 10.3223 16.8653 10.3223 17.4316C10.3223 17.998 10.7813 18.457 11.3477 18.457Z" fill="white"/>
<path d="M23.6523 20.5762H21.6016C21.0352 20.5762 20.5762 21.0352 20.5762 21.6016C20.5762 22.1679 21.0352 22.627 21.6016 22.627H23.6523C24.2187 22.627 24.6777 22.1679 24.6777 21.6016C24.6777 21.0352 24.2187 20.5762 23.6523 20.5762Z" fill="white"/>
</g>
<defs>
<clipPath id="clip0_906_917">
<rect width="35" height="35" fill="white"/>
</clipPath>
</defs>
</svg>
