<svg width="35" height="35" viewBox="0 0 35 35" fill="none" xmlns="http://www.w3.org/2000/svg">
<g clip-path="url(#clip0_906_898)">
<path d="M31.9238 0H3.07617C1.37997 0 0 1.37997 0 3.07617V31.9238C0 33.62 1.37997 35 3.07617 35H31.9238C33.62 35 35 33.62 35 31.9238V3.07617C35 1.37997 33.62 0 31.9238 0ZM32.9492 31.9238C32.9492 32.4892 32.4892 32.9492 31.9238 32.9492H3.07617C2.51077 32.9492 2.05078 32.4892 2.05078 31.9238V10.2539H32.9492V31.9238ZM32.9492 8.20312H2.05078V3.07617C2.05078 2.51077 2.51077 2.05078 3.07617 2.05078H31.9238C32.4892 2.05078 32.9492 2.51077 32.9492 3.07617V8.20312Z" fill="white"/>
<path d="M5.12695 6.15234C5.69326 6.15234 6.15234 5.69326 6.15234 5.12695C6.15234 4.56065 5.69326 4.10156 5.12695 4.10156C4.56065 4.10156 4.10156 4.56065 4.10156 5.12695C4.10156 5.69326 4.56065 6.15234 5.12695 6.15234Z" fill="white"/>
<path d="M9.22852 6.15234C9.79482 6.15234 10.2539 5.69326 10.2539 5.12695C10.2539 4.56065 9.79482 4.10156 9.22852 4.10156C8.66221 4.10156 8.20312 4.56065 8.20312 5.12695C8.20312 5.69326 8.66221 6.15234 9.22852 6.15234Z" fill="white"/>
<path d="M13.3301 6.15234C13.8964 6.15234 14.3555 5.69326 14.3555 5.12695C14.3555 4.56065 13.8964 4.10156 13.3301 4.10156C12.7638 4.10156 12.3047 4.56065 12.3047 5.12695C12.3047 5.69326 12.7638 6.15234 13.3301 6.15234Z" fill="white"/>
<path d="M15.3809 12.3047H5.12695C4.56066 12.3047 4.10156 12.7638 4.10156 13.3301V21.6699C4.10156 22.2362 4.56066 22.6953 5.12695 22.6953H15.3809C15.9471 22.6953 16.4062 22.2362 16.4062 21.6699V13.3301C16.4062 12.7638 15.9471 12.3047 15.3809 12.3047ZM14.3555 20.6445H6.15234V14.3555H14.3555V20.6445Z" fill="white"/>
<path d="M29.873 20.6445H19.4824C18.9161 20.6445 18.457 21.1036 18.457 21.6699C18.457 22.2362 18.9161 22.6953 19.4824 22.6953H29.873C30.4393 22.6953 30.8984 22.2362 30.8984 21.6699C30.8984 21.1036 30.4393 20.6445 29.873 20.6445Z" fill="white"/>
<path d="M29.873 16.4746H19.4824C18.9161 16.4746 18.457 16.9337 18.457 17.5C18.457 18.0663 18.9161 18.5254 19.4824 18.5254H29.873C30.4393 18.5254 30.8984 18.0663 30.8984 17.5C30.8984 16.9337 30.4393 16.4746 29.873 16.4746Z" fill="white"/>
<path d="M29.873 24.7461H5.12695C4.56066 24.7461 4.10156 25.2052 4.10156 25.7715C4.10156 26.3378 4.56066 26.7969 5.12695 26.7969H29.873C30.4393 26.7969 30.8984 26.3378 30.8984 25.7715C30.8984 25.2052 30.4393 24.7461 29.873 24.7461Z" fill="white"/>
<path d="M29.873 28.8477H5.12695C4.56066 28.8477 4.10156 29.3068 4.10156 29.873C4.10156 30.4393 4.56066 30.8984 5.12695 30.8984H29.873C30.4393 30.8984 30.8984 30.4393 30.8984 29.873C30.8984 29.3068 30.4393 28.8477 29.873 28.8477Z" fill="white"/>
</g>
<defs>
<clipPath id="clip0_906_898">
<rect width="35" height="35" fill="white"/>
</clipPath>
</defs>
</svg>
