<svg width="35" height="35" viewBox="0 0 35 35" fill="none" xmlns="http://www.w3.org/2000/svg">
<path d="M18.5938 13.125V5.46875C18.5938 5.15278 18.697 4.89149 18.9036 4.6849C19.1102 4.4783 19.3715 4.375 19.6875 4.375H29.5313C29.8472 4.375 30.1085 4.4783 30.3151 4.6849C30.5217 4.89149 30.625 5.15278 30.625 5.46875V13.125C30.625 13.441 30.5217 13.7023 30.3151 13.9089C30.1085 14.1155 29.8472 14.2188 29.5313 14.2188H19.6875C19.3715 14.2188 19.1102 14.1155 18.9036 13.9089C18.697 13.7023 18.5938 13.441 18.5938 13.125ZM4.375 17.5V5.46875C4.375 5.15278 4.4783 4.89149 4.6849 4.6849C4.89149 4.4783 5.15278 4.375 5.46875 4.375H15.3125C15.6285 4.375 15.8898 4.4783 16.0964 4.6849C16.303 4.89149 16.4063 5.15278 16.4063 5.46875V17.5C16.4063 17.816 16.303 18.0773 16.0964 18.2839C15.8898 18.4905 15.6285 18.5938 15.3125 18.5938H5.46875C5.15278 18.5938 4.89149 18.4905 4.6849 18.2839C4.4783 18.0773 4.375 17.816 4.375 17.5ZM18.5938 29.5313V17.5C18.5938 17.184 18.697 16.9227 18.9036 16.7161C19.1102 16.5095 19.3715 16.4063 19.6875 16.4063H29.5313C29.8472 16.4063 30.1085 16.5095 30.3151 16.7161C30.5217 16.9227 30.625 17.184 30.625 17.5V29.5313C30.625 29.8472 30.5217 30.1085 30.3151 30.3151C30.1085 30.5217 29.8472 30.625 29.5313 30.625H19.6875C19.3715 30.625 19.1102 30.5217 18.9036 30.3151C18.697 30.1085 18.5938 29.8472 18.5938 29.5313ZM4.375 29.5313V21.875C4.375 21.559 4.4783 21.2977 4.6849 21.0911C4.89149 20.8845 5.15278 20.7813 5.46875 20.7813H15.3125C15.6285 20.7813 15.8898 20.8845 16.0964 21.0911C16.303 21.2977 16.4063 21.559 16.4063 21.875V29.5313C16.4063 29.8472 16.303 30.1085 16.0964 30.3151C15.8898 30.5217 15.6285 30.625 15.3125 30.625H5.46875C5.15278 30.625 4.89149 30.5217 4.6849 30.3151C4.4783 30.1085 4.375 29.8472 4.375 29.5313ZM6.5625 16.4063H14.2188V6.5625H6.5625V16.4063ZM20.7813 28.4375H28.4375V18.5938H20.7813V28.4375ZM20.7813 12.0313H28.4375V6.5625H20.7813V12.0313ZM6.5625 28.4375H14.2188V22.9688H6.5625V28.4375Z" fill="white"/>
</svg>
