<svg width="35" height="35" viewBox="0 0 35 35" fill="none" xmlns="http://www.w3.org/2000/svg">
<g clip-path="url(#clip0_906_890)">
<path d="M16.0222 18.3886L10.0051 14.9146C9.79684 14.7943 9.5407 14.7923 9.33063 14.9095C7.88724 15.7137 6.61194 16.9888 5.73961 18.4997C4.80843 20.1126 4.45659 21.7816 4.72216 23.3265C4.94371 24.6154 5.58765 25.7076 6.55909 26.4642L4.98671 29.1876L0.567318 29.9514C0.283766 30.0004 0.0611896 30.2218 0.0107409 30.5051C-0.0397079 30.7885 0.0927029 31.0731 0.341939 31.217L6.73553 34.9084C6.84189 34.9698 6.95981 35 7.07719 35C7.23482 35 7.39143 34.9456 7.51762 34.8393C7.7378 34.654 7.81826 34.3505 7.71887 34.0804L6.17068 29.8712L7.74307 27.1478C8.32398 27.3835 8.9377 27.5022 9.56237 27.5022C10.1644 27.5022 10.7767 27.3919 11.3789 27.1698C12.8495 26.6274 14.1191 25.4881 15.0503 23.8752C15.9226 22.3643 16.3891 20.6223 16.3639 18.9702C16.3603 18.7297 16.2305 18.5088 16.0222 18.3886ZM9.66819 16.2988L14.992 19.3725C14.9702 19.9171 14.8852 20.4775 14.7432 21.0314H6.16829C6.31875 20.4162 6.57236 19.7917 6.92358 19.1833C7.59616 18.0183 8.58292 16.9847 9.66819 16.2988ZM2.66067 30.977L4.97365 30.5773L5.78398 32.7803L2.66067 30.977ZM10.9058 25.887C9.841 26.2797 8.74199 26.2 7.81115 25.6626C6.88038 25.1252 6.2618 24.2133 6.06958 23.0948C6.03068 22.8684 6.0097 22.6358 6.00628 22.3985H14.2689C14.1483 22.6707 14.0138 22.9361 13.8664 23.1915C13.1078 24.5054 12.0564 25.4626 10.9058 25.887Z" fill="white"/>
<path d="M34.4327 29.9514L30.0133 29.1875L28.4409 26.4641C29.4124 25.7075 30.0562 24.6154 30.2779 23.3265C30.5434 21.7816 30.1916 20.1125 29.2604 18.4997C28.3881 16.9887 27.1128 15.7137 25.6694 14.9095C25.4593 14.7924 25.2032 14.7943 24.9949 14.9146L18.9778 18.3885C18.7695 18.5087 18.6398 18.7296 18.6361 18.9701C18.6109 20.6222 19.0774 22.3642 19.9498 23.8751C20.8809 25.488 22.1505 26.6272 23.6212 27.1697C24.2235 27.3918 24.8356 27.5021 25.4377 27.5021C26.0622 27.5021 26.676 27.3834 27.257 27.1477L28.8293 29.8711L27.2812 34.0802C27.1818 34.3504 27.2623 34.6538 27.4824 34.8392C27.6086 34.9455 27.7652 34.9999 27.9228 34.9999C28.0402 34.9999 28.1581 34.9697 28.2645 34.9083L34.6581 31.2169C34.9073 31.073 35.0398 30.7884 34.9893 30.505C34.9388 30.2218 34.7163 30.0005 34.4327 29.9514ZM25.3318 16.2988C26.417 16.9848 27.4039 18.0184 28.0764 19.1833C28.4276 19.7916 28.6812 20.4162 28.8317 21.0315H20.2568C20.1148 20.4775 20.0297 19.9171 20.0079 19.3725L25.3318 16.2988ZM24.0943 25.887C22.9437 25.4626 21.8923 24.5054 21.1337 23.1916C20.9863 22.9361 20.8518 22.6708 20.7312 22.3986H28.9938C28.9904 22.6358 28.9694 22.8685 28.9305 23.0949C28.7383 24.2134 28.1197 25.1253 27.1889 25.6627C26.258 26.2 25.159 26.2797 24.0943 25.887ZM29.216 32.7803L30.0264 30.5773L32.3394 30.977L29.216 32.7803Z" fill="white"/>
<path d="M0.342157 1.27578C0.705757 1.48571 1.07291 1.68873 1.44335 1.88478L1.85822 7.72248C1.87661 7.98074 2.0393 8.20653 2.27849 8.30558C2.36291 8.34058 2.45171 8.3576 2.53996 8.3576C2.7017 8.3576 2.86138 8.30018 2.98798 8.19047L7.41052 4.35479C8.21189 4.60122 9.02207 4.81833 9.8393 5.00556L11.7515 10.5386C11.8361 10.7833 12.0517 10.9592 12.3084 10.993C12.3383 10.997 12.3681 10.9988 12.3977 10.9988C12.6227 10.9988 12.8357 10.8877 12.9638 10.6982L16.242 5.85C16.6608 5.86545 17.0803 5.87317 17.5001 5.87317C17.92 5.87317 18.3395 5.86545 18.7583 5.85L22.0365 10.6982C22.1647 10.8877 22.3777 10.9988 22.6026 10.9988C22.6323 10.9988 22.6621 10.9969 22.692 10.993C22.9487 10.9592 23.1643 10.7833 23.2488 10.5386L25.161 5.0055C25.9782 4.81826 26.7884 4.60115 27.5898 4.35472L32.0123 8.1904C32.1389 8.30018 32.2986 8.35753 32.4604 8.35753C32.5486 8.35753 32.6374 8.34044 32.7218 8.30551C32.9611 8.20646 33.1238 7.98074 33.1421 7.72241L33.557 1.88472C33.9274 1.68866 34.2946 1.48564 34.6582 1.27571C34.9851 1.08697 35.0971 0.668888 34.9084 0.341928C34.7195 0.0149002 34.3015 -0.0970714 33.9746 0.0917354C28.9726 2.97962 23.2758 4.50607 17.5001 4.50607C11.7243 4.50607 6.02755 2.97962 1.02561 0.0917354C0.698853 -0.0969347 0.280771 0.0150369 0.0919646 0.341928C-0.0968422 0.668888 0.0151978 1.08697 0.342157 1.27578ZM22.4034 8.79988L20.3444 5.75471C21.4385 5.66345 22.5265 5.51969 23.6044 5.32466L22.4034 8.79988ZM31.8754 6.26179L29.0977 3.85269C30.1287 3.48267 31.1427 3.06315 32.136 2.5951L31.8754 6.26179ZM3.12504 6.26179L2.86446 2.59517C3.85764 3.06315 4.87174 3.48274 5.90273 3.85269L3.12504 6.26179ZM12.5971 8.79988L11.3961 5.32466C12.474 5.51976 13.562 5.66345 14.6561 5.75478L12.5971 8.79988Z" fill="white"/>
<path d="M17.4997 11.6041C17.1222 11.6041 16.8162 11.9102 16.8162 12.2877V13.3131C16.8162 13.6906 17.1222 13.9967 17.4997 13.9967C17.8773 13.9967 18.1833 13.6906 18.1833 13.3131V12.2877C18.1833 11.9102 17.8773 11.6041 17.4997 11.6041Z" fill="white"/>
<path d="M20.4251 13.1387L19.9124 14.0267C19.7236 14.3537 19.8356 14.7718 20.1626 14.9605C20.2703 15.0227 20.3878 15.0522 20.5038 15.0522C20.74 15.0522 20.9698 14.9296 21.0964 14.7103L21.6091 13.8223C21.7979 13.4953 21.6858 13.0772 21.3589 12.8885C21.0319 12.6996 20.6138 12.8117 20.4251 13.1387Z" fill="white"/>
<path d="M13.6407 12.8884C13.3138 13.0772 13.2017 13.4952 13.3905 13.8221L13.9032 14.7102C14.0299 14.9295 14.2596 15.052 14.4958 15.052C14.6118 15.052 14.7294 15.0225 14.837 14.9604C15.164 14.7716 15.276 14.3536 15.0872 14.0266L14.5745 13.1385C14.3857 12.8116 13.9676 12.6995 13.6407 12.8884Z" fill="white"/>
<path d="M17.4997 29.1382C17.1222 29.1382 16.8162 29.4442 16.8162 29.8218V30.8472C16.8162 31.2247 17.1222 31.5307 17.4997 31.5307C17.8773 31.5307 18.1833 31.2247 18.1833 30.8472V29.8218C18.1833 29.4442 17.8773 29.1382 17.4997 29.1382Z" fill="white"/>
<path d="M14.837 28.1745C14.5101 27.9859 14.092 28.0978 13.9032 28.4247L13.3905 29.3128C13.2017 29.6397 13.3138 30.0578 13.6407 30.2466C13.7484 30.3087 13.8659 30.3382 13.9819 30.3382C14.2182 30.3382 14.4479 30.2157 14.5745 29.9964L15.0872 29.1083C15.276 28.7814 15.164 28.3633 14.837 28.1745Z" fill="white"/>
<path d="M21.0964 28.4247C20.9076 28.0977 20.4896 27.9857 20.1626 28.1745C19.8356 28.3632 19.7236 28.7813 19.9124 29.1083L20.4251 29.9963C20.5517 30.2156 20.7814 30.3382 21.0177 30.3382C21.1336 30.3382 21.2512 30.3086 21.3589 30.2465C21.6858 30.0578 21.7979 29.6397 21.6091 29.3127L21.0964 28.4247Z" fill="white"/>
</g>
<defs>
<clipPath id="clip0_906_890">
<rect width="35" height="35" fill="white"/>
</clipPath>
</defs>
</svg>
