<svg width="35" height="35" viewBox="0 0 35 35" fill="none" xmlns="http://www.w3.org/2000/svg">
<path d="M5.10413 29.1667C4.52079 29.1667 4.01038 28.948 3.57288 28.5105C3.13538 28.073 2.91663 27.5625 2.91663 26.9792V8.02087C2.91663 7.43754 3.13538 6.92712 3.57288 6.48962C4.01038 6.05212 4.52079 5.83337 5.10413 5.83337H29.8958C30.4791 5.83337 30.9895 6.05212 31.427 6.48962C31.8645 6.92712 32.0833 7.43754 32.0833 8.02087V26.9792C32.0833 27.5625 31.8645 28.073 31.427 28.5105C30.9895 28.948 30.4791 29.1667 29.8958 29.1667H5.10413ZM29.8958 10.0261L18.0833 17.7552C17.9861 17.8039 17.8949 17.8464 17.8099 17.8829C17.7248 17.9193 17.6215 17.9375 17.5 17.9375C17.3784 17.9375 17.2751 17.9193 17.1901 17.8829C17.105 17.8464 17.0138 17.8039 16.9166 17.7552L5.10413 10.0261V26.9792H29.8958V10.0261ZM17.5 15.9688L29.75 8.02087H5.28642L17.5 15.9688ZM5.10413 10.2813V8.84119V8.85942V8.82296V10.2813Z" fill="white"/>
</svg>
