<svg width="22" height="23" viewBox="0 0 22 23" fill="none" xmlns="http://www.w3.org/2000/svg">
<path d="M4.03698 2.51303C4.07357 2.60653 4.08818 2.70525 4.07996 2.80357C4.07174 2.90188 4.04086 2.99784 3.98908 3.08598C3.9373 3.17412 3.86564 3.25269 3.77819 3.31722C3.69074 3.38174 3.58923 3.43095 3.47944 3.46203L2.52165 3.73403C2.46325 3.7506 2.41244 3.78241 2.37642 3.82494C2.3404 3.86747 2.32099 3.91858 2.32094 3.97103V21.25C2.32094 21.388 2.4524 21.5 2.61438 21.5H19.6339C19.7117 21.5 19.7863 21.4737 19.8414 21.4268C19.8964 21.3799 19.9273 21.3163 19.9273 21.25V3.97003C19.9271 3.91787 19.9078 3.86708 19.872 3.82476C19.8362 3.78244 19.7858 3.75072 19.7278 3.73403L18.7688 3.46203C18.5472 3.39917 18.3639 3.26388 18.2594 3.0859C18.1548 2.90793 18.1375 2.70186 18.2113 2.51303C18.2851 2.32419 18.4439 2.16806 18.6528 2.07898C18.8617 1.9899 19.1035 1.97517 19.3252 2.03803L20.283 2.31103C20.6917 2.42718 21.0473 2.64984 21.2994 2.94754C21.5515 3.24524 21.6875 3.60293 21.688 3.97003V21.25C21.688 21.7142 21.4715 22.1593 21.0863 22.4875C20.7011 22.8157 20.1787 23 19.6339 23H2.61438C2.06961 23 1.54714 22.8157 1.16193 22.4875C0.776714 22.1593 0.560303 21.7142 0.560303 21.25V3.97003C0.560384 3.60272 0.69612 3.24474 0.948283 2.94681C1.20045 2.64888 1.55625 2.4261 1.96529 2.31003L2.92308 2.03803C3.03282 2.00685 3.14871 1.99441 3.2641 2.00141C3.37949 2.00841 3.49214 2.03472 3.59559 2.07883C3.69904 2.12295 3.79127 2.184 3.867 2.2585C3.94274 2.33301 4.0005 2.4195 4.03698 2.51303Z" fill="#2D582F"/>
<path d="M5.25537 1.75C5.25537 0.784 6.1756 0 7.30945 0H14.9389C16.0727 0 16.993 0.784 16.993 1.75V3.25C16.993 3.71413 16.7765 4.15925 16.3913 4.48744C16.0061 4.81563 15.4837 5 14.9389 5H7.30945C6.76467 5 6.24221 4.81563 5.857 4.48744C5.47178 4.15925 5.25537 3.71413 5.25537 3.25V1.75ZM7.30945 1.5C7.23162 1.5 7.15699 1.52634 7.10196 1.57322C7.04693 1.62011 7.01601 1.6837 7.01601 1.75V3.25C7.01601 3.388 7.14747 3.5 7.30945 3.5H14.9389C15.0167 3.5 15.0913 3.47366 15.1464 3.42678C15.2014 3.37989 15.2323 3.3163 15.2323 3.25V1.75C15.2323 1.6837 15.2014 1.62011 15.1464 1.57322C15.0913 1.52634 15.0167 1.5 14.9389 1.5H7.30945Z" fill="#2D582F"/>
</svg>
