<svg width="35" height="35" viewBox="0 0 35 35" fill="none" xmlns="http://www.w3.org/2000/svg">
<path d="M27.7514 12.356H26.7542V9.25415C26.7542 4.1514 22.6028 0 17.5 0C12.3972 0 8.24585 4.1514 8.24585 9.25415V12.356H7.24855C5.52275 12.356 4.11865 13.7601 4.11865 15.4859V31.8701C4.11865 33.5959 5.52275 35 7.24855 35H27.7514C29.4772 35 30.8813 33.5959 30.8813 31.87V15.4859C30.8813 13.7601 29.4772 12.356 27.7514 12.356ZM10.2966 9.25415C10.2966 5.2822 13.528 2.05078 17.5 2.05078C21.472 2.05078 24.7034 5.2822 24.7034 9.25415V12.356H22.6526V8.77283C22.6526 6.19705 20.5571 4.10156 17.9813 4.10156H17.0187C14.4429 4.10156 12.3474 6.19705 12.3474 8.77283V12.356H10.2966V9.25415ZM14.3982 12.356V8.77283C14.3982 7.32792 15.5737 6.15234 17.0187 6.15234H17.9813C19.4263 6.15234 20.6018 7.32792 20.6018 8.77283V12.356H14.3982ZM28.8306 31.87C28.8306 32.4651 28.3464 32.9492 27.7514 32.9492H7.24855C6.65355 32.9492 6.16943 32.4651 6.16943 31.87V15.4859C6.16943 14.8909 6.65355 14.4067 7.24855 14.4067H27.7514C28.3464 14.4067 28.8306 14.8909 28.8306 15.4859V31.87Z" fill="white"/>
<path d="M17.5 18.7117C15.7991 18.7117 14.4153 20.0955 14.4153 21.7964C14.4153 23.1379 15.2763 24.2815 16.4746 24.7052V27.9744C16.4746 28.5407 16.9337 28.9998 17.5 28.9998C18.0663 28.9998 18.5254 28.5407 18.5254 27.9744V24.7052C19.7237 24.2815 20.5847 23.1379 20.5847 21.7964C20.5847 20.0955 19.2009 18.7117 17.5 18.7117ZM17.5 22.8303C16.9299 22.8303 16.4661 22.3665 16.4661 21.7964C16.4661 21.2263 16.9299 20.7625 17.5 20.7625C18.0701 20.7625 18.5339 21.2263 18.5339 21.7964C18.5339 22.3665 18.0701 22.8303 17.5 22.8303Z" fill="white"/>
</svg>
