<svg width="35" height="35" viewBox="0 0 35 35" fill="none" xmlns="http://www.w3.org/2000/svg">
<path d="M2.47913 29.1667C2.16315 29.1667 1.90187 29.0634 1.69527 28.8568C1.48867 28.6502 1.38538 28.3889 1.38538 28.0729V25.7396C1.38538 24.8889 1.60413 24.1172 2.04163 23.4245C2.47913 22.7318 3.08676 22.2153 3.86454 21.875C5.63885 21.0972 7.23694 20.5382 8.65881 20.1979C10.0807 19.8577 11.5451 19.6875 13.052 19.6875C14.559 19.6875 16.0173 19.8577 17.427 20.1979C18.8368 20.5382 20.4288 21.0972 22.2031 21.875C22.9809 22.2153 23.5946 22.7318 24.0442 23.4245C24.4939 24.1172 24.7187 24.8889 24.7187 25.7396V28.0729C24.7187 28.3889 24.6154 28.6502 24.4088 28.8568C24.2022 29.0634 23.9409 29.1667 23.625 29.1667H2.47913ZM26.1041 29.1667C26.3472 29.1181 26.5416 28.9905 26.6875 28.7839C26.8333 28.5773 26.9062 28.316 26.9062 28V25.7396C26.9062 24.2084 26.5173 22.9505 25.7395 21.9662C24.9618 20.9818 23.9409 20.1858 22.677 19.5781C24.3541 19.7726 25.934 20.0582 27.4166 20.4349C28.8993 20.8117 30.1024 21.2431 31.026 21.7292C31.8281 22.191 32.46 22.7622 32.9218 23.4427C33.3836 24.1233 33.6145 24.8889 33.6145 25.7396V28.0729C33.6145 28.3889 33.5112 28.6502 33.3046 28.8568C33.098 29.0634 32.8368 29.1667 32.5208 29.1667H26.1041ZM13.052 17.4636C11.4479 17.4636 10.1354 16.9531 9.11454 15.9323C8.09371 14.9115 7.58329 13.599 7.58329 11.9948C7.58329 10.3906 8.09371 9.07815 9.11454 8.05731C10.1354 7.03648 11.4479 6.52606 13.052 6.52606C14.6562 6.52606 15.9687 7.03648 16.9895 8.05731C18.0104 9.07815 18.5208 10.3906 18.5208 11.9948C18.5208 13.599 18.0104 14.9115 16.9895 15.9323C15.9687 16.9531 14.6562 17.4636 13.052 17.4636ZM26.177 11.9948C26.177 13.599 25.6666 14.9115 24.6458 15.9323C23.625 16.9531 22.3125 17.4636 20.7083 17.4636C20.4409 17.4636 20.1432 17.4453 19.8151 17.4089C19.4869 17.3724 19.1892 17.3056 18.9218 17.2084C19.5052 16.6007 19.9487 15.8533 20.2526 14.9662C20.5564 14.079 20.7083 13.0886 20.7083 11.9948C20.7083 10.9011 20.5564 9.93492 20.2526 9.09637C19.9487 8.25783 19.5052 7.48613 18.9218 6.78127C19.1892 6.70835 19.4869 6.64759 19.8151 6.59898C20.1432 6.55037 20.4409 6.52606 20.7083 6.52606C22.3125 6.52606 23.625 7.03648 24.6458 8.05731C25.6666 9.07815 26.177 10.3906 26.177 11.9948ZM3.57288 26.9792H22.5312V25.7396C22.5312 25.3507 22.4158 24.974 22.1849 24.6094C21.954 24.2448 21.6684 23.9896 21.3281 23.8438C19.5781 23.066 18.1076 22.5434 16.9166 22.2761C15.7257 22.0087 14.4375 21.875 13.052 21.875C11.6666 21.875 10.3724 22.0087 9.16923 22.2761C7.96611 22.5434 6.48954 23.066 4.73954 23.8438C4.39926 23.9896 4.11975 24.2448 3.901 24.6094C3.68225 24.974 3.57288 25.3507 3.57288 25.7396V26.9792ZM13.052 15.2761C14 15.2761 14.7838 14.9662 15.4036 14.3464C16.0234 13.7266 16.3333 12.9427 16.3333 11.9948C16.3333 11.0469 16.0234 10.263 15.4036 9.64325C14.7838 9.02346 14 8.71356 13.052 8.71356C12.1041 8.71356 11.3203 9.02346 10.7005 9.64325C10.0807 10.263 9.77079 11.0469 9.77079 11.9948C9.77079 12.9427 10.0807 13.7266 10.7005 14.3464C11.3203 14.9662 12.1041 15.2761 13.052 15.2761Z" fill="white"/>
</svg>
