<svg width="33" height="24" viewBox="0 0 33 24" fill="none" xmlns="http://www.w3.org/2000/svg">
<path d="M26.7084 14.4167C26.3924 14.4167 26.1311 14.3134 25.9245 14.1068C25.7179 13.9002 25.6146 13.6389 25.6146 13.3229V9.6771H21.9688C21.6528 9.6771 21.3915 9.57381 21.1849 9.36721C20.9783 9.16061 20.875 8.89933 20.875 8.58335C20.875 8.26738 20.9783 8.0061 21.1849 7.7995C21.3915 7.5929 21.6528 7.4896 21.9688 7.4896H25.6146V3.84377C25.6146 3.5278 25.7179 3.26651 25.9245 3.05992C26.1311 2.85332 26.3924 2.75002 26.7084 2.75002C27.0243 2.75002 27.2856 2.85332 27.4922 3.05992C27.6988 3.26651 27.8021 3.5278 27.8021 3.84377V7.4896H31.448C31.7639 7.4896 32.0252 7.5929 32.2318 7.7995C32.4384 8.0061 32.5417 8.26738 32.5417 8.58335C32.5417 8.89933 32.4384 9.16061 32.2318 9.36721C32.0252 9.57381 31.7639 9.6771 31.448 9.6771H27.8021V13.3229C27.8021 13.6389 27.6988 13.9002 27.4922 14.1068C27.2856 14.3134 27.0243 14.4167 26.7084 14.4167ZM12.125 11.4636C10.5209 11.4636 9.20837 10.9531 8.18754 9.93231C7.16671 8.91148 6.65629 7.59898 6.65629 5.99481C6.65629 4.39065 7.16671 3.07815 8.18754 2.05731C9.20837 1.03648 10.5209 0.526062 12.125 0.526062C13.7292 0.526062 15.0417 1.03648 16.0625 2.05731C17.0834 3.07815 17.5938 4.39065 17.5938 5.99481C17.5938 7.59898 17.0834 8.91148 16.0625 9.93231C15.0417 10.9531 13.7292 11.4636 12.125 11.4636ZM1.55212 23.1667C1.23615 23.1667 0.974867 23.0634 0.76827 22.8568C0.561673 22.6502 0.458374 22.3889 0.458374 22.0729V19.7396C0.458374 18.8889 0.677124 18.1172 1.11462 17.4245C1.55212 16.7318 2.15976 16.2153 2.93754 15.875C4.76046 15.0729 6.38285 14.5078 7.80473 14.1797C9.2266 13.8516 10.6667 13.6875 12.125 13.6875C13.5834 13.6875 15.0235 13.8516 16.4454 14.1797C17.8672 14.5078 19.4775 15.0729 21.2761 15.875C22.0539 16.2396 22.6676 16.7622 23.1172 17.4427C23.5669 18.1233 23.7917 18.8889 23.7917 19.7396V22.0729C23.7917 22.3889 23.6884 22.6502 23.4818 22.8568C23.2752 23.0634 23.0139 23.1667 22.698 23.1667H1.55212ZM2.64587 20.9792H21.6042V19.7396C21.6042 19.3507 21.507 18.9801 21.3125 18.6276C21.1181 18.2752 20.8143 18.0139 20.4011 17.8438C18.6997 17.0174 17.2474 16.4827 16.0443 16.2396C14.8412 15.9965 13.5348 15.875 12.125 15.875C10.7153 15.875 9.40889 16.0026 8.20577 16.2578C7.00264 16.513 5.53823 17.0417 3.81254 17.8438C3.44796 18.0139 3.16237 18.2752 2.95577 18.6276C2.74917 18.9801 2.64587 19.3507 2.64587 19.7396V20.9792ZM12.125 9.27606C13.073 9.27606 13.8568 8.96617 14.4766 8.34637C15.0964 7.72658 15.4063 6.94273 15.4063 5.99481C15.4063 5.0469 15.0964 4.26304 14.4766 3.64325C13.8568 3.02346 13.073 2.71356 12.125 2.71356C11.1771 2.71356 10.3933 3.02346 9.77348 3.64325C9.15369 4.26304 8.84379 5.0469 8.84379 5.99481C8.84379 6.94273 9.15369 7.72658 9.77348 8.34637C10.3933 8.96617 11.1771 9.27606 12.125 9.27606Z" fill="white"/>
</svg>
